<svg width="20" height="20" viewBox="0 0 20 20" fill="none" xmlns="http://www.w3.org/2000/svg">
<path d="M15.4675 10.9652C14.5492 10.9652 13.6883 10.576 12.9058 9.94266L13.0958 9.04599L13.1025 9.01099C13.275 8.05849 13.81 6.46099 15.4683 6.46099C16.0656 6.46143 16.6383 6.69889 17.0606 7.12122C17.4829 7.54355 17.7204 8.11622 17.7208 8.71349C17.7197 9.31062 17.4819 9.88295 17.0595 10.305C16.6371 10.7271 16.0646 10.9645 15.4675 10.9652ZM15.4675 4.18182C13.3517 4.18182 11.7092 5.55599 11.0425 7.82016C10.0258 6.29182 9.2525 4.45682 8.80333 2.91016H6.52333V8.83682C6.52289 9.39969 6.29916 9.93938 5.90123 10.3375C5.5033 10.7355 4.9637 10.9595 4.40083 10.9602C3.83826 10.9591 3.29908 10.7349 2.90151 10.3369C2.50395 9.93884 2.28044 9.3994 2.28 8.83682V2.91016H0V8.83682C0 11.2652 1.975 13.256 4.40083 13.256C6.82833 13.256 8.80333 11.2652 8.80333 8.83682V7.84516C9.24417 8.76766 9.78833 9.70266 10.4483 10.5293L9.05417 17.0902H11.385L12.3958 12.3318C13.2817 12.8977 14.3 13.256 15.4675 13.256C17.9675 13.256 20 11.2127 20 8.71432C20 6.21432 17.9675 4.18182 15.4675 4.18182Z" fill="white"/>
</svg>
