<svg width="148" height="59" viewBox="0 0 148 59" fill="none" xmlns="http://www.w3.org/2000/svg">
<path d="M130.878 17.9971C133.027 17.9971 135.088 18.248 137.06 18.751H137.059C139.055 19.2562 140.834 20.041 142.388 21.1113H142.387C143.969 22.1896 145.218 23.5776 146.129 25.2705L146.296 25.5928C147.105 27.2197 147.5 29.1246 147.5 31.292V57.2832H136.51V52.8623C135.974 53.6596 135.338 54.3875 134.597 55.042L134.593 55.0449C133.518 55.9764 132.234 56.7037 130.748 57.2305L130.743 57.2314C129.246 57.7451 127.533 57.997 125.611 57.9971C123.13 57.9971 120.9 57.5682 118.931 56.6992L118.927 56.6982C116.949 55.8085 115.375 54.4933 114.216 52.7549L114.213 52.75C113.06 50.9776 112.5 48.7936 112.5 46.2275C112.5 44.0685 112.898 42.2178 113.723 40.6992C114.536 39.2005 115.648 37.9889 117.055 37.0732C118.439 36.1718 120.006 35.4951 121.751 35.04H121.752C123.492 34.5905 125.314 34.2746 127.216 34.0918C129.419 33.8628 131.19 33.6503 132.531 33.4551L133.01 33.373C134.08 33.1705 134.82 32.904 135.272 32.5996C135.73 32.2922 135.966 31.849 135.966 31.1934V31.0459C135.966 29.6022 135.514 28.5472 134.656 27.8076L134.653 27.8047C133.802 27.0581 132.551 26.6494 130.828 26.6494C129.003 26.6494 127.611 27.0522 126.603 27.8047L126.599 27.8076C125.56 28.5675 124.887 29.5114 124.558 30.6445L124.444 31.0361L124.037 31.0029L114.295 30.2158L113.727 30.1699L113.847 29.6123C114.358 27.2389 115.366 25.1761 116.875 23.4355C118.384 21.6789 120.324 20.3387 122.682 19.4102L123.132 19.2383C125.403 18.4072 127.988 17.9971 130.878 17.9971ZM136.04 40.0742C135.822 40.1641 135.586 40.2521 135.33 40.332L135.321 40.335C134.746 40.5035 134.097 40.6618 133.378 40.8115L133.367 40.8145V40.8135C132.655 40.9454 131.942 41.0691 131.229 41.1846L131.219 41.1865C130.511 41.2849 129.868 41.3742 129.292 41.4561L129.293 41.457C128.089 41.6327 127.053 41.91 126.178 42.2832C125.319 42.6493 124.678 43.1342 124.229 43.7256L124.225 43.7295C123.794 44.2824 123.565 44.9889 123.564 45.8828C123.564 47.1706 124.023 48.102 124.916 48.751C125.867 49.4136 127.093 49.7627 128.628 49.7627C130.111 49.7627 131.399 49.4727 132.505 48.9072C133.619 48.3213 134.482 47.5427 135.106 46.5723C135.727 45.6085 136.04 44.5144 136.04 43.2754V40.0742Z" fill="#CBE1F2" fill-opacity="0.5" stroke="#3B82F6"/>
<path d="M111.5 28.752L110.857 28.5615C110.401 28.4262 109.748 28.2999 108.887 28.1875C108.032 28.0759 107.256 28.0215 106.558 28.0215C105.086 28.0215 103.788 28.3382 102.652 28.96L102.65 28.9609C101.528 29.5689 100.639 30.4171 99.9775 31.5117L99.9766 31.5107C99.3381 32.5943 99.0127 33.8532 99.0127 35.3018V56.9971H87.5V18.5332H98.6924V23.8311C99.4203 22.1844 100.443 20.8661 101.772 19.8975C103.491 18.629 105.471 17.9971 107.693 17.9971C108.24 17.9971 108.826 18.031 109.449 18.0977C110.074 18.1645 110.632 18.2574 111.12 18.3779L111.5 18.4717V28.752Z" fill="#CBE1F2" fill-opacity="0.5" stroke="#3B82F6"/>
<path d="M80.5 18.9971V56.9971H68.5V18.9971H80.5Z" fill="#CBE1F2" fill-opacity="0.5" stroke="#3B82F6"/>
<path d="M44.8779 17.9971C47.0271 17.9971 49.0881 18.248 51.0596 18.751H51.0586C53.0554 19.2562 54.834 20.041 56.3877 21.1113H56.3867C57.9687 22.1896 59.2177 23.5776 60.1289 25.2705L60.2959 25.5928C61.1047 27.2197 61.5 29.1246 61.5 31.292V57.2832H50.5098V52.8623C49.9745 53.6596 49.3381 54.3875 48.5967 55.042L48.5928 55.0449C47.518 55.9764 46.2337 56.7037 44.748 57.2305L44.7432 57.2314C43.2461 57.7451 41.5329 57.997 39.6113 57.9971C37.1302 57.9971 34.8999 57.5682 32.9307 56.6992L32.9268 56.6982C30.9494 55.8085 29.3747 54.4933 28.2158 52.7549L28.2129 52.75C27.0604 50.9776 26.5 48.7936 26.5 46.2275C26.5 44.0685 26.8983 42.2178 27.7227 40.6992C28.5363 39.2005 29.6484 37.9889 31.0547 37.0732C32.4393 36.1718 34.0064 35.4951 35.751 35.04H35.752C37.4921 34.5905 39.3136 34.2746 41.2158 34.0918C43.4187 33.8628 45.1897 33.6503 46.5312 33.4551L47.0098 33.373C48.0796 33.1705 48.8197 32.904 49.2725 32.5996C49.7296 32.2922 49.9658 31.849 49.9658 31.1934V31.0459C49.9658 29.6022 49.5137 28.5472 48.6562 27.8076L48.6533 27.8047C47.802 27.0581 46.5508 26.6494 44.8281 26.6494C43.0027 26.6494 41.611 27.0522 40.6025 27.8047L40.5986 27.8076C39.5601 28.5675 38.8872 29.5114 38.5576 30.6445L38.4443 31.0361L38.0371 31.0029L28.2949 30.2158L27.7266 30.1699L27.8467 29.6123C28.3578 27.2389 29.366 25.1761 30.875 23.4355C32.3837 21.6789 34.3239 20.3387 36.6816 19.4102L37.1318 19.2383C39.4031 18.4072 41.9879 17.9971 44.8779 17.9971ZM50.04 40.0742C49.8219 40.1641 49.5857 40.2521 49.3301 40.332L49.3213 40.335C48.7455 40.5035 48.0968 40.6618 47.3779 40.8115L47.3672 40.8145V40.8135C46.6547 40.9454 45.942 41.0691 45.2295 41.1846L45.2188 41.1865C44.5106 41.2849 43.8682 41.3742 43.292 41.4561L43.293 41.457C42.0895 41.6327 41.0529 41.91 40.1777 42.2832C39.3195 42.6493 38.6779 43.1342 38.2285 43.7256L38.2246 43.7295C37.794 44.2824 37.5645 44.9889 37.5645 45.8828C37.5645 47.1706 38.0228 48.102 38.916 48.751C39.8668 49.4136 41.0927 49.7627 42.6279 49.7627C44.1111 49.7627 45.3991 49.4727 46.5049 48.9072C47.6187 48.3213 48.4817 47.5427 49.1064 46.5723C49.7269 45.6085 50.04 44.5144 50.04 43.2754V40.0742Z" fill="#CBE1F2" fill-opacity="0.5" stroke="#3B82F6"/>
<path d="M18.6367 3.99707C20.2595 3.99707 21.7499 4.12028 23.1055 4.36914L23.1045 4.37012C24.4457 4.61337 25.463 4.834 26.1426 5.03613L26.5967 5.17188L26.4863 5.63184L24.627 13.3936L24.502 13.916L23.9893 13.7539C23.6073 13.6327 23.1233 13.5152 22.5322 13.4043H22.5293C21.9747 13.2974 21.4033 13.2432 20.8145 13.2432C19.3363 13.2432 18.4529 13.5896 17.9912 14.1338L17.9873 14.1387C17.488 14.7141 17.2041 15.5599 17.2041 16.7451V18.7432H24.6895V27.5049H17.2041V56.9971H5.80859V27.5049H0.5V18.7432H5.80859V16.5508C5.80865 13.7874 6.35071 11.4532 7.46875 9.57715L7.4707 9.57422C8.59699 7.71304 10.1381 6.31162 12.0859 5.37988C14.0215 4.45405 16.2086 3.9971 18.6367 3.99707Z" fill="#CBE1F2" fill-opacity="0.5" stroke="#3B82F6"/>
<path d="M82.2841 8.64705L74.344 16.3289L66.6622 8.38886L74.6022 0.70701L82.2841 8.64705Z" fill="#CBE1F2" fill-opacity="0.5" stroke="#3B82F6"/>
</svg>
