<svg width="1240" height="272" viewBox="0 0 1240 272" fill="none" xmlns="http://www.w3.org/2000/svg">
<path d="M1239.42 0.385742V269.668H1215.34V155.088H1163.92V269.668H1139.84V0.385742H1163.92V111.108H1215.34V0.385742H1239.42Z" fill="#67475B"/>
<path d="M1090.33 218.358H1042.52L1034.6 269.668H1009.32L1052.49 0H1080.53L1123.7 269.668H1098.24L1090.33 218.358ZM1083.8 175.149L1066.42 62.4981L1049.05 175.149H1083.8Z" fill="#67475B"/>
<path d="M970.432 269.668L926.744 149.687V269.668H902.664V0.385742H926.744V121.138L970.432 0.385742H999.5L949.964 133.869L1000.88 269.668H970.432Z" fill="#67475B"/>
<path d="M878.873 0.385742V269.668H854.793V0.385742H878.873Z" fill="#67475B"/>
<path d="M837.224 0.385742V43.9801H805.232V269.668H781.152V43.9801H749.16V0.385742H837.224Z" fill="#67475B"/>
<path d="M706.02 218.358H658.204L650.292 269.668H625.008L668.18 0H696.216L739.388 269.668H713.932L706.02 218.358ZM699.484 175.149L682.112 62.4981L664.74 175.149H699.484Z" fill="#67475B"/>
<path d="M516.913 224.144H570.921V269.668H489.049V228.002L542.713 45.909H489.049V0.385742H570.921V42.0511L516.913 224.144Z" fill="#67475B"/>
<path d="M396.123 0.385742V167.047C396.123 185.308 398.244 199.325 402.487 209.098C406.73 218.615 412.692 223.373 420.375 223.373C428.172 223.373 434.192 218.615 438.435 209.098C442.678 199.325 444.799 185.308 444.799 167.047V0.385742H469.051V166.662C469.051 189.552 466.815 208.97 462.343 224.916C457.986 240.605 452.08 252.436 444.627 260.409C437.288 268.382 429.09 272.368 420.031 272.368C411.087 272.368 402.946 268.382 395.607 260.409C388.383 252.436 382.65 240.605 378.407 224.916C374.164 208.97 372.043 189.552 372.043 166.662V0.385742H396.123Z" fill="#67475B"/>
<path d="M324.119 269.668L297.631 164.733H286.279V269.668H262.199V0.385742H307.263C316.551 0.385742 324.463 4.11504 330.999 11.5737C337.535 18.7751 342.409 28.677 345.619 41.2795C348.945 53.6248 350.607 67.5133 350.607 82.9449C350.607 100.691 348.314 116.766 343.727 131.169C339.141 145.314 332.318 155.088 323.259 160.489L351.983 269.668H324.119ZM286.279 124.225H306.403C312.939 124.225 317.813 120.752 321.023 113.808C324.234 106.607 325.839 96.7048 325.839 84.1023C325.839 71.757 324.234 62.2408 321.023 55.5538C317.813 48.6096 312.939 45.1374 306.403 45.1374H286.279V124.225Z" fill="#67475B"/>
<path d="M238.408 0.385742V269.668H214.328V0.385742H238.408Z" fill="#67475B"/>
<path d="M164.825 218.358H117.008L109.097 269.668H83.8125L126.984 0H155.021L198.193 269.668H172.737L164.825 218.358ZM158.288 175.149L140.917 62.4981L123.544 175.149H158.288Z" fill="#67475B"/>
<path d="M74.132 0.385742V43.9801H24.08V113.037H62.436V155.859H24.08V269.668H0V0.385742H74.132Z" fill="#67475B"/>
</svg>
