<svg width="18" height="18" viewBox="0 0 18 18" fill="none" xmlns="http://www.w3.org/2000/svg">
<path d="M9.32788 9.84823C9.36163 9.2517 9.65512 8.72506 10.0992 8.35282C10.5343 7.98692 11.1185 7.76318 11.7598 7.76318C12.3979 7.76318 12.9819 7.98678 13.4164 8.35282C13.8612 8.72506 14.1529 9.2517 14.1877 9.84823C14.2215 10.4599 13.9736 11.0309 13.5402 11.4537C13.0961 11.8827 12.4676 12.1536 11.7598 12.1536C11.0515 12.1536 10.4203 11.8843 9.97897 11.4537C9.54388 11.031 9.29652 10.4632 9.33126 9.85104L9.32788 9.84823Z" fill="#235785"/>
<path d="M5.51887 11.1095C5.52281 11.3429 5.59818 11.7971 5.71012 12.1507C5.94665 12.901 6.34813 13.5953 6.90402 14.2036C7.47524 14.8315 8.18006 15.3364 8.99231 15.6957C9.84632 16.0711 10.7733 16.2634 11.7352 16.2634C12.6971 16.2621 13.6241 16.0665 14.4779 15.6865C15.2902 15.3234 15.9953 14.8192 16.5662 14.1879C17.1251 13.5728 17.5253 12.8791 17.7603 12.1282C17.8779 11.7552 17.9532 11.3701 17.9846 10.9802C18.0138 10.602 18.0014 10.2202 17.9476 9.83837C17.8423 9.10268 17.5827 8.39755 17.1858 7.76921C16.8239 7.18562 16.3539 6.67796 15.795 6.24863L15.7967 6.24807L10.1781 1.95816C10.173 1.95423 10.1685 1.95029 10.1634 1.94691C9.79513 1.66538 9.17287 1.66651 8.76984 1.94804C8.36005 2.23365 8.31281 2.70531 8.67759 3.00217L8.6759 3.00329L11.0218 4.89948L3.8796 4.90665H3.87004C3.27984 4.90721 2.71143 5.29182 2.6002 5.78035C2.48488 6.27549 2.88637 6.68879 3.50188 6.68879L3.50076 6.69104L7.11988 6.68429L0.644102 11.6048C0.636227 11.6109 0.627227 11.6171 0.619352 11.6233C0.00974286 12.0865 -0.186991 12.8594 0.196915 13.3451C0.587571 13.8404 1.41557 13.8438 2.03165 13.3479L5.55543 10.4778C5.55543 10.4778 5.50368 10.8656 5.50818 11.0961L5.51887 11.1095ZM14.5976 12.4059C13.8709 13.1411 12.8516 13.5604 11.7532 13.5604C10.652 13.5621 9.63271 13.1501 8.90582 12.4155C8.5506 12.0556 8.29031 11.6458 8.12845 11.2074C7.97021 10.7759 7.90918 10.3148 7.94971 9.85707C7.98821 9.41044 8.12138 8.97712 8.34037 8.58596C8.55229 8.20431 8.84521 7.85752 9.2038 7.56404C9.91157 6.99338 10.8097 6.68091 11.7491 6.68091C12.6926 6.67979 13.5909 6.98663 14.2986 7.55785C14.6572 7.84965 14.949 8.19474 15.1621 8.5764C15.3816 8.96752 15.5146 9.40116 15.5522 9.84807C15.5922 10.3056 15.5311 10.7664 15.3734 11.1978C15.2121 11.6396 14.9513 12.0494 14.5954 12.4093L14.5976 12.4059Z" fill="#E87500"/>
</svg>
