<svg width="224" height="38" viewBox="0 0 224 38" fill="none" xmlns="http://www.w3.org/2000/svg">
<g clip-path="url(#clip0_1337_3444)">
<path fill-rule="evenodd" clip-rule="evenodd" d="M0 24.9743L3.72896 1.37524H10.0033C12.7426 1.37524 14.8881 1.44253 16.6378 2.26585C19.013 3.38603 20.2678 5.43244 20.2678 8.27446C20.2678 12.1337 17.8571 14.9718 13.6966 15.6645L19.4405 24.9743H12.2478L7.69148 15.9614L6.27036 24.9743H0ZM10.2685 12.1694C12.7743 12.1694 14.1281 10.9779 14.1281 8.83257C14.1281 6.75449 12.8416 5.96285 10.2012 5.96285H9.27491L8.28527 12.1694H10.2685Z" fill="#98A2B3"/>
<path fill-rule="evenodd" clip-rule="evenodd" d="M26.0748 25.5678C22.4132 25.5678 19.6738 22.5635 19.6738 17.9759C19.6738 12.2998 23.3672 8.17529 28.1887 8.17529C30.4332 8.17529 32.1829 9.09756 33.6357 11.045L33.9959 8.70174H39.4429L36.8698 24.9741H31.5218L31.787 22.7931C30.2036 24.6416 28.256 25.5678 26.0748 25.5678ZM28.9131 20.8812C31.1932 20.8812 32.9073 18.9021 32.9073 16.2264C32.9073 14.2116 31.5218 12.8262 29.4752 12.8262C27.1318 12.8262 25.4494 14.7737 25.4494 17.4138C25.4494 19.5275 26.8665 20.8812 28.9131 20.8812Z" fill="#98A2B3"/>
<path d="M38.8811 8.7019H44.8229L46.244 15.7317C46.3746 16.3928 46.6398 17.315 46.6715 18.5698C46.9367 17.6475 47.3326 16.6896 47.8274 15.6645L51.1961 8.7019H57.3675L44.7239 32.1703H38.7188L43.5047 24.147L38.8811 8.7019Z" fill="#98A2B3"/>
<path d="M63.341 19.8919C64.9917 19.8919 65.9497 19.0013 65.9497 17.7782C65.9497 16.3928 64.7265 15.8624 62.6482 14.7739C59.5447 13.1589 57.795 11.7062 57.795 8.7336C57.795 4.11433 61.2271 0.781494 66.2466 0.781494C68.8552 0.781494 71.2977 1.70376 73.4432 3.5206L70.7356 8.17549C69.0848 6.75448 67.6993 6.03012 66.4761 6.03012C65.1579 6.03012 64.2316 6.8851 64.2316 7.94195C64.2316 9.22838 65.8507 9.6915 67.9606 10.879C71.0008 12.5652 72.3863 14.1485 72.3863 17.2161C72.3863 22.1679 68.7879 25.568 62.6165 25.568C59.4457 25.568 56.6747 24.2143 54.4619 21.5741L57.7317 16.8559C59.612 18.8667 61.3261 19.8919 63.341 19.8919Z" fill="#98A2B3"/>
<path fill-rule="evenodd" clip-rule="evenodd" d="M75.292 8.70174H80.7034L80.3392 10.9461C81.9582 9.09756 83.8702 8.17529 86.0514 8.17529C89.713 8.17529 92.4524 11.1756 92.4524 15.7316C92.4524 21.4077 88.7907 25.5361 83.9375 25.5361C81.7247 25.5361 80.0106 24.6099 78.4589 22.6625C78.4589 23.7866 78.3916 24.6416 78.2926 25.2393L77.2357 32.1702H71.5591L75.292 8.70174ZM83.0825 12.9925C80.8063 12.9925 79.0883 14.9716 79.0883 17.6434C79.0883 19.6582 80.4738 21.0119 82.5203 21.0119C84.8638 21.0119 86.5502 19.0961 86.5502 16.4559C86.5502 14.3422 85.129 12.9925 83.0825 12.9925Z" fill="#98A2B3"/>
<path fill-rule="evenodd" clip-rule="evenodd" d="M98.5286 18.5696C98.5286 20.6477 99.6172 21.7402 101.628 21.7402C103.081 21.7402 104.272 21.1465 105.658 19.8561L108.761 22.991C106.877 24.7762 104.435 25.6351 101.498 25.6351C96.1495 25.6351 93.1133 22.6308 93.1133 17.5801C93.1133 12.0029 96.9768 8.17529 102.523 8.17529C107.57 8.17529 110.871 11.5398 110.871 16.5905C110.871 17.018 110.808 17.5484 110.741 18.2055H98.5286V18.5696ZM102.487 12.0346C100.935 12.0346 99.5816 13.0598 98.9244 14.9083H105.492C105.393 13.1271 104.237 12.0346 102.487 12.0346Z" fill="#98A2B3"/>
<path fill-rule="evenodd" clip-rule="evenodd" d="M116.584 18.5696C116.584 20.6477 117.672 21.7402 119.683 21.7402C121.136 21.7402 122.324 21.1465 123.713 19.8561L126.813 22.991C124.932 24.7762 122.49 25.6351 119.553 25.6351C114.205 25.6351 111.168 22.6308 111.168 17.5801C111.168 12.0029 115.032 8.17529 120.578 8.17529C125.625 8.17529 128.927 11.5398 128.927 16.5905C128.927 17.018 128.859 17.5484 128.796 18.2055H116.584V18.5696ZM120.542 12.0346C118.991 12.0346 117.637 13.0598 116.98 14.9083H123.547C123.448 13.1271 122.292 12.0346 120.542 12.0346Z" fill="#98A2B3"/>
<path fill-rule="evenodd" clip-rule="evenodd" d="M146.716 24.9742H141.305L141.633 22.8605C140.018 24.709 138.07 25.6352 135.889 25.6352C132.228 25.6352 129.488 22.5953 129.488 18.0433C129.488 12.3672 133.15 8.27435 138.003 8.27435C140.18 8.27435 141.898 9.16495 143.482 11.1124V10.6493C143.482 9.92097 143.549 9.22828 143.648 8.57121L145.002 -0.0102539H150.647L146.716 24.9742ZM138.858 20.7824C141.134 20.7824 142.852 18.7993 142.852 16.1275C142.852 14.1128 141.467 12.7274 139.42 12.7274C137.077 12.7274 135.394 14.6748 135.394 17.315C135.394 19.4287 136.812 20.7824 138.858 20.7824Z" fill="#98A2B3"/>
<path fill-rule="evenodd" clip-rule="evenodd" d="M167.412 1.375H175.301L180.316 24.9701H173.911L172.957 20.5171H164.704L162.459 24.9701H155.595L167.412 1.375ZM172.063 15.2724L170.974 9.75856C170.808 8.86795 170.677 7.97735 170.646 7.08674C170.115 8.57108 169.755 9.49731 169.589 9.85751L167.079 15.2724H172.063Z" fill="#98A2B3"/>
<path d="M193.388 13.5506C192.002 12.5611 190.779 12.0346 189.492 12.0346C188.404 12.0346 187.711 12.5967 187.711 13.2538C187.711 14.2433 188.831 14.3462 190.549 15.1023C193.356 16.3254 194.741 17.5445 194.741 19.9234C194.741 23.2879 191.97 25.5995 187.481 25.5995C184.972 25.5995 182.727 24.9385 180.613 23.6204L182.529 19.7255C184.41 20.8813 185.894 21.574 187.382 21.574C188.57 21.574 189.263 20.9803 189.263 20.2203C189.263 19.0961 187.909 18.7993 185.795 17.877C183.42 16.8201 182.331 15.6643 182.331 13.6179C182.331 10.6809 185.003 8.17139 189.294 8.17139C191.373 8.17139 193.356 8.76512 195.07 9.88926L193.388 13.5506Z" fill="#98A2B3"/>
<path d="M197.778 8.70169H203.553L200.98 24.9701H195.205L197.778 8.70169ZM201.277 0.78125C203.027 0.78125 204.377 2.06768 204.377 3.85285C204.377 5.63405 202.959 6.95611 201.277 6.95611C199.559 6.95611 198.205 5.5351 198.205 3.85285C198.205 2.20226 199.527 0.78125 201.277 0.78125Z" fill="#98A2B3"/>
<path fill-rule="evenodd" clip-rule="evenodd" d="M210.584 25.5679C206.922 25.5679 204.183 22.5636 204.183 17.976C204.183 12.2998 207.88 8.17139 212.697 8.17139C214.942 8.17139 216.692 9.09762 218.144 11.0451L218.509 8.70179H223.952L221.379 24.9702H216.031L216.296 22.7931C214.712 24.6416 212.765 25.5679 210.584 25.5679ZM213.422 20.8813C215.702 20.8813 217.416 18.8982 217.416 16.2264C217.416 14.2117 216.031 12.8263 213.984 12.8263C211.641 12.8263 209.958 14.7737 209.958 17.4139C209.958 19.5276 211.379 20.8813 213.422 20.8813Z" fill="#98A2B3"/>
<path d="M88.7075 32.7363C88.1256 32.2376 87.4368 31.9882 86.7282 31.9882C85.5011 31.9882 84.6064 32.9342 84.6064 34.276C84.6064 35.4754 85.2913 36.172 86.5303 36.172C87.0845 36.172 87.6347 36.0375 88.2285 35.7881L87.9158 37.7118C87.4038 37.878 86.7929 37.9612 86.083 37.9612C83.9414 37.9612 82.5757 36.5164 82.5757 34.3592C82.5757 33.2984 82.9201 32.3326 83.5455 31.5607C84.2818 30.6543 85.4179 30.1555 86.8113 30.1555C87.6981 30.1555 88.4264 30.3732 89.04 30.6859L88.7075 32.7363Z" fill="#98A2B3"/>
<path fill-rule="evenodd" clip-rule="evenodd" d="M89.1348 37.775L90.3105 30.3335H92.2897C93.1527 30.3335 93.8296 30.3533 94.3799 30.6145C95.132 30.9668 95.5278 31.612 95.5278 32.5066C95.5278 33.7257 94.7678 34.6203 93.4536 34.838L95.2666 37.775H92.9944L91.5614 34.933L91.1101 37.775H89.1348ZM92.3729 33.7376C93.1646 33.7376 93.5921 33.3616 93.5921 32.6847C93.5921 32.0276 93.1883 31.7783 92.3531 31.7783H92.0601L91.7514 33.7376H92.3729Z" fill="#98A2B3"/>
<path fill-rule="evenodd" clip-rule="evenodd" d="M97.4003 37.0981C96.6917 36.4846 96.2642 35.5267 96.2642 34.4857C96.2642 33.3813 96.6086 32.4036 97.2855 31.612C98.0772 30.6858 99.2529 30.1672 100.595 30.1672C102.855 30.1672 104.344 31.6001 104.344 33.6426C104.344 34.7469 103.987 35.7365 103.314 36.5163C102.499 37.4623 101.367 37.9729 100.013 37.9729C98.9441 37.9729 98.0732 37.6813 97.4003 37.0981ZM98.3266 34.268C98.3266 35.4119 99.0352 36.1521 100.128 36.1521C101.323 36.1521 102.273 35.119 102.273 33.8207C102.273 32.7361 101.501 31.988 100.472 31.988C99.241 31.988 98.3266 32.9855 98.3266 34.268Z" fill="#98A2B3"/>
<path d="M107.424 36.172C107.946 36.172 108.247 35.8909 108.247 35.507C108.247 35.0676 107.863 34.9014 107.206 34.557C106.228 34.0464 105.674 33.5912 105.674 32.6531C105.674 31.1964 106.759 30.1436 108.342 30.1436C109.162 30.1436 109.933 30.4365 110.61 31.0104L109.755 32.475C109.237 32.0277 108.797 31.7981 108.413 31.7981C107.998 31.7981 107.705 32.0712 107.705 32.4037C107.705 32.8114 108.215 32.9539 108.88 33.3299C109.838 33.8603 110.278 34.3591 110.278 35.3289C110.278 36.8884 109.142 37.9611 107.194 37.9611C106.197 37.9611 105.322 37.5336 104.625 36.7024L105.654 35.2141C106.248 35.8474 106.79 36.172 107.424 36.172Z" fill="#98A2B3"/>
<path d="M113.401 36.172C113.919 36.172 114.22 35.8909 114.22 35.507C114.22 35.0676 113.836 34.9014 113.179 34.557C112.201 34.0464 111.651 33.5912 111.651 32.6531C111.651 31.1964 112.732 30.1436 114.315 30.1436C115.139 30.1436 115.907 30.4365 116.583 31.0104L115.732 32.475C115.21 32.0277 114.774 31.7981 114.386 31.7981C113.971 31.7981 113.682 32.0712 113.682 32.4037C113.682 32.8114 114.193 32.9539 114.858 33.3299C115.816 33.8603 116.251 34.3591 116.251 35.3289C116.251 36.8884 115.119 37.9611 113.171 37.9611C112.17 37.9611 111.295 37.5336 110.598 36.7024L111.631 35.2141C112.221 35.8474 112.763 36.172 113.401 36.172Z" fill="#98A2B3"/>
<path d="M117.657 34.4343H121.105L120.855 36.0057H117.407L117.657 34.4343Z" fill="#98A2B3"/>
<path fill-rule="evenodd" clip-rule="evenodd" d="M127.858 35.59C127.858 36.3579 127.493 37.0348 126.911 37.399C126.349 37.7552 125.558 37.775 124.465 37.775H122.007L123.194 30.3335H124.881C125.799 30.3335 126.476 30.3414 126.963 30.5393C127.588 30.7887 127.972 31.3943 127.972 32.1028C127.972 33.0805 127.379 33.7653 126.401 33.9038C127.347 34.078 127.858 34.6717 127.858 35.59ZM124.414 36.3184C125.403 36.3184 125.914 36.2036 125.914 35.3288C125.914 34.7549 125.558 34.5807 124.798 34.5807H124.445L124.172 36.3184H124.414ZM124.833 33.2151C125.653 33.2151 126.092 33.0686 126.092 32.3839C126.092 31.9366 125.787 31.7585 125.166 31.7585H124.885L124.663 33.2151H124.833Z" fill="#98A2B3"/>
<path fill-rule="evenodd" clip-rule="evenodd" d="M129.9 37.0981C129.192 36.4846 128.764 35.5267 128.764 34.4857C128.764 33.3813 129.109 32.4036 129.785 31.612C130.577 30.6858 131.753 30.1672 133.095 30.1672C135.355 30.1672 136.844 31.6001 136.844 33.6426C136.844 34.7469 136.487 35.7365 135.81 36.5163C134.999 37.4623 133.867 37.9729 132.513 37.9729C131.444 37.9729 130.573 37.6813 129.9 37.0981ZM130.827 34.268C130.827 35.4119 131.535 36.1521 132.628 36.1521C133.823 36.1521 134.769 35.119 134.769 33.8207C134.769 32.7361 134.001 31.988 132.972 31.988C131.741 31.988 130.827 32.9855 130.827 34.268Z" fill="#98A2B3"/>
<path fill-rule="evenodd" clip-rule="evenodd" d="M137.489 37.775L138.664 30.3335H140.644C141.507 30.3335 142.184 30.3533 142.734 30.6145C143.486 30.9668 143.878 31.612 143.878 32.5066C143.878 33.7257 143.118 34.6203 141.808 34.838L143.621 37.775H141.348L139.911 34.933L139.464 37.775H137.489ZM140.727 33.7376C141.519 33.7376 141.946 33.3616 141.946 32.6847C141.946 32.0276 141.538 31.7783 140.707 31.7783H140.414L140.101 33.7376H140.727Z" fill="#98A2B3"/>
<path fill-rule="evenodd" clip-rule="evenodd" d="M145.532 30.3335H146.815C148.189 30.3335 149.19 30.3533 149.855 30.6858C150.948 31.236 151.553 32.3324 151.553 33.8207C151.553 35.2457 151.043 36.3065 149.978 37.0586C148.98 37.7552 147.741 37.775 146.087 37.775H144.369L145.532 30.3335ZM147.116 36.1402C148.719 36.1402 149.55 35.3209 149.55 33.7772C149.55 32.4868 148.949 31.9762 147.634 31.9762H147.258L146.625 36.1204C146.794 36.1336 146.958 36.1402 147.116 36.1402Z" fill="#98A2B3"/>
<path d="M156.787 36.1204L156.525 37.775H152.238L153.414 30.3335H157.705L157.432 32.0514H155.132L154.946 33.2666H157.08L156.83 34.8815H154.685L154.487 36.1204H156.787Z" fill="#98A2B3"/>
<path fill-rule="evenodd" clip-rule="evenodd" d="M157.911 37.775L159.087 30.3335H161.066C161.929 30.3335 162.606 30.3533 163.16 30.6145C163.908 30.9668 164.304 31.612 164.304 32.5066C164.304 33.7257 163.544 34.6203 162.234 34.838L164.043 37.775H161.775L160.338 34.933L159.89 37.775H157.911ZM161.149 33.7376C161.941 33.7376 162.365 33.3616 162.365 32.6847C162.365 32.0276 161.961 31.7783 161.125 31.7783H160.837L160.524 33.7376H161.149Z" fill="#98A2B3"/>
<path d="M169.165 30.3335H171.165L170.27 35.9938H172.724L172.443 37.775H167.99L169.165 30.3335Z" fill="#98A2B3"/>
<path fill-rule="evenodd" clip-rule="evenodd" d="M174.493 37.0981C173.785 36.4846 173.361 35.5267 173.361 34.4857C173.361 33.3813 173.702 32.4036 174.379 31.612C175.17 30.6858 176.346 30.1672 177.692 30.1672C179.948 30.1672 181.437 31.6001 181.437 33.6426C181.437 34.7469 181.084 35.7365 180.408 36.5163C179.596 37.4623 178.46 37.9729 177.106 37.9729C176.037 37.9729 175.166 37.6813 174.493 37.0981ZM175.42 34.268C175.42 35.4119 176.128 36.1521 177.221 36.1521C178.42 36.1521 179.366 35.119 179.366 33.8207C179.366 32.7361 178.595 31.988 177.565 31.988C176.338 31.988 175.42 32.9855 175.42 34.268Z" fill="#98A2B3"/>
<path d="M190.098 33.7257C190.035 36.4094 188.539 37.9729 186.164 37.9729C183.792 37.9729 182.324 36.5677 182.324 34.4342C182.324 33.2467 182.771 32.1424 183.563 31.3428C184.311 30.5908 185.372 30.1672 186.603 30.1672C188.016 30.1672 189.069 30.7174 189.849 31.9049L188.266 32.9855C187.893 32.3205 187.351 31.988 186.603 31.988C185.352 31.988 184.446 32.9974 184.446 34.3709C184.446 35.5267 185.166 36.255 186.207 36.255C186.606 36.2524 186.953 36.1627 187.248 35.9859C187.517 35.817 187.707 35.5702 187.818 35.2457H186.124L186.361 33.7257H190.098Z" fill="#98A2B3"/>
<path d="M191.776 30.3335H193.803L192.627 37.775H190.597L191.776 30.3335Z" fill="#98A2B3"/>
<path d="M196.689 36.172C197.207 36.172 197.512 35.8909 197.512 35.507C197.512 35.0676 197.124 34.9014 196.471 34.557C195.489 34.0464 194.939 33.5912 194.939 32.6531C194.939 31.1964 196.02 30.1436 197.603 30.1436C198.427 30.1436 199.199 30.4365 199.872 31.0104L199.02 32.475C198.498 32.0277 198.063 31.7981 197.679 31.7981C197.259 31.7981 196.97 32.0712 196.97 32.4037C196.97 32.8114 197.481 32.9539 198.146 33.3299C199.104 33.8603 199.539 34.3591 199.539 35.3289C199.539 36.8884 198.407 37.9611 196.459 37.9611C195.458 37.9611 194.587 37.5336 193.886 36.7024L194.919 35.2141C195.513 35.8474 196.052 36.172 196.689 36.172Z" fill="#98A2B3"/>
<path d="M202.164 32.0593H200.497L200.778 30.3335H206.035L205.754 32.0593H204.163L203.256 37.775H201.257L202.164 32.0593Z" fill="#98A2B3"/>
<path d="M207.12 30.3335H209.147L207.971 37.775H205.944L207.12 30.3335Z" fill="#98A2B3"/>
<path d="M215.967 32.7363C215.385 32.2376 214.697 31.9882 213.988 31.9882C212.761 31.9882 211.866 32.9342 211.866 34.276C211.866 35.4754 212.551 36.172 213.79 36.172C214.344 36.172 214.894 36.0375 215.488 35.7881L215.176 37.7118C214.664 37.878 214.053 37.9612 213.343 37.9612C211.197 37.9612 209.835 36.5164 209.835 34.3592C209.835 33.2984 210.18 32.3326 210.805 31.5607C211.542 30.6543 212.678 30.1555 214.071 30.1555C214.958 30.1555 215.686 30.3732 216.3 30.6859L215.967 32.7363Z" fill="#98A2B3"/>
<path d="M218.829 36.172C219.352 36.172 219.653 35.8909 219.653 35.507C219.653 35.0676 219.269 34.9014 218.612 34.557C217.634 34.0464 217.08 33.5912 217.08 32.6531C217.08 31.1964 218.164 30.1436 219.748 30.1436C220.567 30.1436 221.339 30.4365 222.016 31.0104L221.161 32.475C220.642 32.0277 220.203 31.7981 219.819 31.7981C219.403 31.7981 219.111 32.0712 219.111 32.4037C219.111 32.8114 219.621 32.9539 220.286 33.3299C221.244 33.8603 221.684 34.3591 221.684 35.3289C221.684 36.8884 220.547 37.9611 218.6 37.9611C217.602 37.9611 216.727 37.5336 216.031 36.7024L217.06 35.2141C217.654 35.8474 218.196 36.172 218.829 36.172Z" fill="#98A2B3"/>
</g>
<defs>
<clipPath id="clip0_1337_3444">
<rect width="224" height="38" fill="white"/>
</clipPath>
</defs>
</svg>
