<svg width="18" height="18" viewBox="0 0 18 18" fill="none" xmlns="http://www.w3.org/2000/svg">
<path d="M1.125 2.25V15.75C1.125 16.0484 1.24353 16.3345 1.4545 16.5455C1.66548 16.7565 1.95163 16.875 2.25 16.875H15.75C16.0484 16.875 16.3345 16.7565 16.5455 16.5455C16.7565 16.3345 16.875 16.0484 16.875 15.75V2.25C16.875 1.95163 16.7565 1.66548 16.5455 1.4545C16.3345 1.24353 16.0484 1.125 15.75 1.125H2.25C1.95163 1.125 1.66548 1.24353 1.4545 1.4545C1.24353 1.66548 1.125 1.95163 1.125 2.25ZM12.5083 6.81187C10.8354 7.0515 10.5294 7.9695 10.0671 9.35606C9.54956 10.9108 8.8605 12.9763 5.77238 13.4156C5.62473 13.437 5.47429 13.4288 5.32987 13.3914C5.18544 13.3539 5.04992 13.2881 4.93123 13.1977C4.81253 13.1074 4.71304 12.9942 4.63856 12.865C4.56408 12.7357 4.51612 12.5929 4.49747 12.4448C4.47881 12.2968 4.48985 12.1466 4.52993 12.0029C4.57001 11.8592 4.63832 11.7249 4.73089 11.6079C4.82345 11.4909 4.93841 11.3935 5.06904 11.3214C5.19966 11.2493 5.34335 11.204 5.49169 11.1881C7.16456 10.9485 7.47056 10.0305 7.93294 8.64394C8.45044 7.08919 9.1395 5.02369 12.2276 4.58437C12.3753 4.56299 12.5257 4.57124 12.6701 4.60865C12.8146 4.64606 12.9501 4.71188 13.0688 4.80226C13.1875 4.89264 13.287 5.00578 13.3614 5.13505C13.4359 5.26432 13.4839 5.40714 13.5025 5.55516C13.5212 5.70318 13.5102 5.85343 13.4701 5.99714C13.43 6.14085 13.3617 6.27512 13.2691 6.39213C13.1765 6.50913 13.0616 6.60651 12.931 6.67858C12.8003 6.75065 12.6567 6.79597 12.5083 6.81187Z" fill="#00BFA5"/>
</svg>
