<svg width="405" height="117" viewBox="0 0 405 117" fill="none" xmlns="http://www.w3.org/2000/svg">
<path fill-rule="evenodd" clip-rule="evenodd" d="M50.7179 26.9391C52.7385 27.9486 78.9431 29.2104 45.6032 51.6713C30.0699 62.1446 19.3354 66.1195 9.23242 72.1763L13.5262 79.495L22.8715 74.7L25.5867 78.4856C30.0699 77.0975 41.7514 69.5895 48.5078 64.6683C55.2011 59.7471 77.996 43.28 73.5128 32.5543C71.2396 27.0022 60.3157 23.9738 50.7179 26.9391Z" fill="url(#paint0_linear_352_1306)"/>
<path fill-rule="evenodd" clip-rule="evenodd" d="M46.2979 75.9621L50.2128 80C66.4408 69.9683 94.4766 51.4192 75.0915 34.9521C75.9123 47.1289 60.3158 58.8641 51.4126 64.921L35.7529 75.5205L39.8573 80L46.2979 75.9621Z" fill="url(#paint1_linear_352_1306)"/>
<path fill-rule="evenodd" clip-rule="evenodd" d="M67.5773 75.3318L70.3557 77.9186C79.8904 71.4832 96.1183 59.6218 82.353 49.0854C83.9316 56.9088 74.9652 64.4168 69.8505 68.2655L60.7578 75.0794L63.7887 77.9186L67.5773 75.3318Z" fill="url(#paint2_linear_352_1306)"/>
<path fill-rule="evenodd" clip-rule="evenodd" d="M37.0154 53.06C34.9948 52.0505 8.85327 50.7887 42.13 28.3278C57.7265 17.8545 68.3978 13.9428 78.5008 7.8228L74.207 0.504089L64.8618 5.29911L62.1466 1.57666C57.6634 2.9016 45.9818 10.4727 39.2885 15.3308C32.5322 20.252 9.73728 36.7191 14.2205 47.5079C16.4937 52.9969 27.4175 56.0885 37.0154 53.06Z" fill="url(#paint3_linear_352_1306)"/>
<path fill-rule="evenodd" clip-rule="evenodd" d="M41.4355 4.03791L37.5205 0.0630924C21.2926 10.0948 -6.68008 28.6439 12.6419 45.111C11.821 32.8711 27.4807 21.1359 36.3208 15.1422L51.9805 4.47956L47.8761 0L41.4355 4.03791Z" fill="url(#paint4_linear_352_1306)"/>
<path fill-rule="evenodd" clip-rule="evenodd" d="M20.2192 4.66906L17.3778 2.14537C7.9062 8.5177 -8.38489 20.3791 5.38045 30.9155C3.80185 23.092 12.7683 15.584 17.8829 11.7354L26.9756 4.98452L23.9447 2.08228L20.2192 4.66906Z" fill="url(#paint5_linear_352_1306)"/>
<g opacity="0.8">
<path d="M158.213 0H96.5562V15.7341H127.385L119.548 23.5642V80H135.221V15.7341H158.213V0Z" fill="#D3D3D3"/>
<path d="M234.029 34.5706V34.94C234.029 34.7922 234.029 34.7184 234.029 34.5706ZM234.029 20.9788V21.2742C234.029 21.2004 234.029 21.0526 234.029 20.9788ZM236.543 80L221.461 53.9982C228.78 50.6741 233.881 43.361 234.029 34.94C234.029 34.7922 234.029 34.7184 234.029 34.5706V21.2742C234.029 21.2004 234.029 21.0526 234.029 20.9788C233.808 9.30748 224.271 0 212.664 0H168.75V80H184.423V15.7341H212.294C215.621 15.7341 218.282 18.3195 218.282 21.6436V34.2013C218.282 37.5254 215.621 40.1847 212.294 40.1847H195.364L190.633 55.9187H204.458L218.356 80H236.543Z" fill="#D3D3D3"/>
<path d="M262.754 80V0H247.081V80H262.754Z" fill="#D3D3D3"/>
<path d="M296.948 32.0591L288.963 40.0369V21.6436C288.963 18.3195 291.699 15.7341 294.952 15.7341H324.375L329.107 0H294.656C282.901 0 273.291 9.60296 273.291 21.2742V58.6519C273.291 70.397 282.901 80 294.656 80H329.107V64.3398H294.952C291.699 64.3398 288.963 61.6066 288.963 58.4303V47.867H329.107V32.0591H296.948Z" fill="#D3D3D3"/>
<path d="M404.923 53.4072C404.923 41.6621 395.313 32.0591 383.558 32.0591H361.231C358.052 32.0591 355.317 29.4737 355.317 26.1496V21.6436C355.317 18.3195 358.052 15.7341 361.231 15.7341H394.204L399.009 0H361.01C349.255 0 339.644 9.60295 339.644 21.2742V26.5189C339.644 38.2641 349.255 47.867 361.01 47.867H383.188C386.515 47.867 389.103 50.4524 389.103 53.7766V58.4303C389.103 61.6067 386.515 64.3398 383.188 64.3398H344.376L339.644 80H383.558C395.313 80 404.923 70.397 404.923 58.6519V53.4072Z" fill="#D3D3D3"/>
</g>
<path d="M5.99507 111V95.7486H0.0959211V94.2138H13.6688V95.7486H7.76961V111H5.99507ZM19.7005 111.12C18.3896 111.12 17.2386 110.848 16.2474 110.305C15.2562 109.745 14.4808 108.986 13.9213 108.026C13.3618 107.051 13.082 105.94 13.082 104.693C13.082 103.446 13.3458 102.343 13.8733 101.384C14.4169 100.425 15.1523 99.6733 16.0795 99.1298C17.0227 98.5702 18.0779 98.2905 19.2449 98.2905C20.4279 98.2905 21.4751 98.5622 22.3863 99.1058C23.3136 99.6334 24.041 100.385 24.5685 101.36C25.0961 102.319 25.3599 103.43 25.3599 104.693C25.3599 104.773 25.3519 104.861 25.3359 104.957C25.3359 105.037 25.3359 105.125 25.3359 105.221H14.3769V103.95H24.4247L23.7532 104.453C23.7532 103.542 23.5534 102.735 23.1537 102.031C22.77 101.312 22.2424 100.752 21.571 100.353C20.8996 99.9531 20.1242 99.7533 19.2449 99.7533C18.3816 99.7533 17.6063 99.9531 16.9188 100.353C16.2314 100.752 15.6958 101.312 15.3121 102.031C14.9285 102.751 14.7366 103.574 14.7366 104.501V104.765C14.7366 105.724 14.9445 106.572 15.3601 107.307C15.7918 108.026 16.3833 108.594 17.1346 109.01C17.902 109.409 18.7733 109.609 19.7485 109.609C20.5159 109.609 21.2273 109.473 21.8827 109.201C22.5542 108.93 23.1297 108.514 23.6093 107.955L24.5685 109.058C24.009 109.729 23.3056 110.241 22.4583 110.592C21.627 110.944 20.7077 111.12 19.7005 111.12ZM33.5735 111.12C32.3265 111.12 31.2074 110.848 30.2163 110.305C29.2411 109.745 28.4737 108.986 27.9142 108.026C27.3546 107.051 27.0748 105.94 27.0748 104.693C27.0748 103.43 27.3546 102.319 27.9142 101.36C28.4737 100.401 29.2411 99.6493 30.2163 99.1058C31.2074 98.5622 32.3265 98.2905 33.5735 98.2905C34.6446 98.2905 35.6118 98.4983 36.4751 98.9139C37.3384 99.3296 38.0178 99.9531 38.5134 100.784L37.2425 101.648C36.8108 101.008 36.2753 100.537 35.6358 100.233C34.9963 99.9291 34.3009 99.7772 33.5495 99.7772C32.6543 99.7772 31.8469 99.9851 31.1275 100.401C30.4081 100.8 29.8406 101.368 29.4249 102.103C29.0093 102.839 28.8014 103.702 28.8014 104.693C28.8014 105.684 29.0093 106.548 29.4249 107.283C29.8406 108.018 30.4081 108.594 31.1275 109.01C31.8469 109.409 32.6543 109.609 33.5495 109.609C34.3009 109.609 34.9963 109.457 35.6358 109.154C36.2753 108.85 36.8108 108.386 37.2425 107.763L38.5134 108.626C38.0178 109.441 37.3384 110.065 36.4751 110.496C35.6118 110.912 34.6446 111.12 33.5735 111.12ZM47.6179 98.2905C48.641 98.2905 49.5363 98.4903 50.3037 98.89C51.087 99.2737 51.6945 99.8652 52.1262 100.665C52.5738 101.464 52.7976 102.471 52.7976 103.686V111H51.095V103.854C51.095 102.527 50.7593 101.528 50.0878 100.856C49.4324 100.169 48.5051 99.8252 47.3061 99.8252C46.4109 99.8252 45.6275 100.009 44.9561 100.377C44.3006 100.728 43.789 101.248 43.4213 101.935C43.0696 102.607 42.8938 103.422 42.8938 104.381V111H41.1912V93.2066H42.8938V101.864L42.558 101.216C42.9577 100.305 43.5972 99.5934 44.4765 99.0818C45.3557 98.5542 46.4029 98.2905 47.6179 98.2905ZM66.3345 111V95.7486H60.4353V94.2138H74.0082V95.7486H68.109V111H66.3345ZM82.4305 98.2905C83.4536 98.2905 84.3489 98.4903 85.1163 98.89C85.8996 99.2737 86.5071 99.8652 86.9388 100.665C87.3864 101.464 87.6102 102.471 87.6102 103.686V111H85.9076V103.854C85.9076 102.527 85.5719 101.528 84.9004 100.856C84.245 100.169 83.3177 99.8252 82.1187 99.8252C81.2235 99.8252 80.4401 100.009 79.7687 100.377C79.1132 100.728 78.6016 101.248 78.2339 101.935C77.8822 102.607 77.7064 103.422 77.7064 104.381V111H76.0038V93.2066H77.7064V101.864L77.3706 101.216C77.7703 100.305 78.4098 99.5934 79.2891 99.0818C80.1683 98.5542 81.2155 98.2905 82.4305 98.2905ZM99.6191 111V108.218L99.5471 107.763V103.11C99.5471 102.039 99.2434 101.216 98.6359 100.641C98.0444 100.065 97.1571 99.7772 95.9741 99.7772C95.1587 99.7772 94.3834 99.9131 93.648 100.185C92.9126 100.457 92.2891 100.816 91.7775 101.264L91.0102 99.9931C91.6496 99.4495 92.417 99.0338 93.3123 98.7461C94.2075 98.4423 95.1508 98.2905 96.1419 98.2905C97.7726 98.2905 99.0276 98.6981 99.9068 99.5135C100.802 100.313 101.25 101.536 101.25 103.182V111H99.6191ZM95.2786 111.12C94.3354 111.12 93.5121 110.968 92.8087 110.664C92.1212 110.345 91.5937 109.913 91.226 109.369C90.8583 108.81 90.6744 108.17 90.6744 107.451C90.6744 106.795 90.8263 106.204 91.1301 105.676C91.4498 105.133 91.9614 104.701 92.6648 104.381C93.3842 104.046 94.3434 103.878 95.5424 103.878H99.8829V105.149H95.5904C94.3754 105.149 93.5281 105.365 93.0485 105.796C92.5849 106.228 92.3531 106.763 92.3531 107.403C92.3531 108.122 92.6328 108.698 93.1924 109.13C93.7519 109.561 94.5353 109.777 95.5424 109.777C96.5016 109.777 97.325 109.561 98.0124 109.13C98.7158 108.682 99.2274 108.042 99.5471 107.211L99.9308 108.386C99.6111 109.217 99.0515 109.881 98.2522 110.377C97.4688 110.872 96.4777 111.12 95.2786 111.12ZM109.375 111.12C108.192 111.12 107.281 110.8 106.642 110.161C106.002 109.521 105.682 108.618 105.682 107.451V95.6286H107.385V107.355C107.385 108.09 107.569 108.658 107.936 109.058C108.32 109.457 108.864 109.657 109.567 109.657C110.319 109.657 110.942 109.441 111.438 109.01L112.037 110.233C111.701 110.536 111.294 110.76 110.814 110.904C110.35 111.048 109.871 111.12 109.375 111.12ZM103.428 99.8252V98.4104H111.222V99.8252H103.428ZM120.813 111V94.2138H122.276L129.95 107.307H129.182L136.784 94.2138H138.247V111H136.544V96.8756H136.952L129.95 108.866H129.11L122.06 96.8756H122.516V111H120.813ZM148.009 111.12C146.794 111.12 145.699 110.848 144.723 110.305C143.764 109.745 143.005 108.986 142.445 108.026C141.886 107.051 141.606 105.94 141.606 104.693C141.606 103.43 141.886 102.319 142.445 101.36C143.005 100.401 143.764 99.6493 144.723 99.1058C145.683 98.5622 146.778 98.2905 148.009 98.2905C149.256 98.2905 150.359 98.5622 151.318 99.1058C152.293 99.6493 153.052 100.401 153.596 101.36C154.156 102.319 154.435 103.43 154.435 104.693C154.435 105.94 154.156 107.051 153.596 108.026C153.052 108.986 152.293 109.745 151.318 110.305C150.343 110.848 149.24 111.12 148.009 111.12ZM148.009 109.609C148.92 109.609 149.727 109.409 150.431 109.01C151.134 108.594 151.686 108.018 152.085 107.283C152.501 106.532 152.709 105.668 152.709 104.693C152.709 103.702 152.501 102.839 152.085 102.103C151.686 101.368 151.134 100.8 150.431 100.401C149.727 99.9851 148.928 99.7772 148.033 99.7772C147.137 99.7772 146.338 99.9851 145.635 100.401C144.931 100.8 144.372 101.368 143.956 102.103C143.54 102.839 143.332 103.702 143.332 104.693C143.332 105.668 143.54 106.532 143.956 107.283C144.372 108.018 144.931 108.594 145.635 109.01C146.338 109.409 147.129 109.609 148.009 109.609ZM160.318 111L154.73 98.4104H156.505L161.637 110.089H160.797L166.001 98.4104H167.68L162.068 111H160.318ZM174.594 111.12C173.283 111.12 172.132 110.848 171.141 110.305C170.15 109.745 169.375 108.986 168.815 108.026C168.256 107.051 167.976 105.94 167.976 104.693C167.976 103.446 168.24 102.343 168.767 101.384C169.311 100.425 170.046 99.6733 170.973 99.1298C171.917 98.5702 172.972 98.2905 174.139 98.2905C175.322 98.2905 176.369 98.5622 177.28 99.1058C178.207 99.6334 178.935 100.385 179.462 101.36C179.99 102.319 180.254 103.43 180.254 104.693C180.254 104.773 180.246 104.861 180.23 104.957C180.23 105.037 180.23 105.125 180.23 105.221H169.271V103.95H179.318L178.647 104.453C178.647 103.542 178.447 102.735 178.047 102.031C177.664 101.312 177.136 100.752 176.465 100.353C175.793 99.9531 175.018 99.7533 174.139 99.7533C173.275 99.7533 172.5 99.9531 171.813 100.353C171.125 100.752 170.59 101.312 170.206 102.031C169.822 102.751 169.63 103.574 169.63 104.501V104.765C169.63 105.724 169.838 106.572 170.254 107.307C170.686 108.026 171.277 108.594 172.028 109.01C172.796 109.409 173.667 109.609 174.642 109.609C175.41 109.609 176.121 109.473 176.777 109.201C177.448 108.93 178.023 108.514 178.503 107.955L179.462 109.058C178.903 109.729 178.199 110.241 177.352 110.592C176.521 110.944 175.601 111.12 174.594 111.12ZM186.621 111.12C185.582 111.12 184.598 110.976 183.671 110.688C182.744 110.385 182.017 110.009 181.489 109.561L182.256 108.218C182.768 108.602 183.423 108.938 184.223 109.225C185.022 109.497 185.861 109.633 186.741 109.633C187.94 109.633 188.803 109.449 189.331 109.082C189.858 108.698 190.122 108.194 190.122 107.571C190.122 107.107 189.97 106.747 189.666 106.492C189.379 106.22 188.995 106.02 188.515 105.892C188.036 105.748 187.5 105.628 186.909 105.532C186.317 105.437 185.726 105.325 185.134 105.197C184.558 105.069 184.031 104.885 183.551 104.645C183.072 104.389 182.68 104.046 182.376 103.614C182.089 103.182 181.945 102.607 181.945 101.887C181.945 101.2 182.136 100.585 182.52 100.041C182.904 99.4975 183.463 99.0738 184.199 98.7701C184.95 98.4503 185.861 98.2905 186.933 98.2905C187.748 98.2905 188.563 98.4024 189.379 98.6262C190.194 98.834 190.865 99.1138 191.393 99.4655L190.649 100.832C190.09 100.449 189.49 100.177 188.851 100.017C188.211 99.8412 187.572 99.7533 186.933 99.7533C185.797 99.7533 184.958 99.9531 184.415 100.353C183.887 100.736 183.623 101.232 183.623 101.84C183.623 102.319 183.767 102.695 184.055 102.967C184.359 103.238 184.75 103.454 185.23 103.614C185.726 103.758 186.261 103.878 186.837 103.974C187.428 104.07 188.012 104.19 188.587 104.333C189.179 104.461 189.714 104.645 190.194 104.885C190.689 105.109 191.081 105.437 191.369 105.868C191.673 106.284 191.825 106.835 191.825 107.523C191.825 108.258 191.617 108.898 191.201 109.441C190.801 109.969 190.21 110.385 189.426 110.688C188.659 110.976 187.724 111.12 186.621 111.12ZM200.625 111V94.2138H207.867C209.738 94.2138 211.185 94.5895 212.208 95.3409C213.247 96.0923 213.766 97.1554 213.766 98.5303C213.766 99.4415 213.551 100.209 213.119 100.832C212.703 101.456 212.128 101.927 211.392 102.247C210.673 102.567 209.882 102.727 209.018 102.727L209.426 102.151C210.497 102.151 211.416 102.319 212.184 102.655C212.967 102.975 213.575 103.462 214.006 104.118C214.438 104.757 214.654 105.556 214.654 106.516C214.654 107.939 214.126 109.042 213.071 109.825C212.032 110.608 210.457 111 208.347 111H200.625ZM202.4 109.537H208.323C209.794 109.537 210.921 109.289 211.704 108.794C212.487 108.282 212.879 107.475 212.879 106.372C212.879 105.285 212.487 104.493 211.704 103.998C210.921 103.486 209.794 103.23 208.323 103.23H202.208V101.768H207.747C209.09 101.768 210.129 101.512 210.865 101C211.616 100.489 211.992 99.7293 211.992 98.7221C211.992 97.6989 211.616 96.9396 210.865 96.444C210.129 95.9324 209.09 95.6766 207.747 95.6766H202.4V109.537ZM223.069 111.12C221.997 111.12 221.062 110.92 220.263 110.52C219.464 110.121 218.84 109.521 218.392 108.722C217.961 107.923 217.745 106.923 217.745 105.724V98.4104H219.448V105.532C219.448 106.875 219.775 107.891 220.431 108.578C221.102 109.249 222.037 109.585 223.236 109.585C224.116 109.585 224.875 109.409 225.515 109.058C226.17 108.69 226.666 108.162 227.001 107.475C227.353 106.787 227.529 105.964 227.529 105.005V98.4104H229.231V111H227.601V107.547L227.865 108.17C227.465 109.098 226.841 109.825 225.994 110.353C225.163 110.864 224.188 111.12 223.069 111.12ZM236.878 111.12C235.839 111.12 234.856 110.976 233.929 110.688C233.001 110.385 232.274 110.009 231.746 109.561L232.514 108.218C233.025 108.602 233.681 108.938 234.48 109.225C235.279 109.497 236.119 109.633 236.998 109.633C238.197 109.633 239.06 109.449 239.588 109.082C240.116 108.698 240.379 108.194 240.379 107.571C240.379 107.107 240.227 106.747 239.924 106.492C239.636 106.22 239.252 106.02 238.773 105.892C238.293 105.748 237.757 105.628 237.166 105.532C236.574 105.437 235.983 105.325 235.391 105.197C234.816 105.069 234.288 104.885 233.809 104.645C233.329 104.389 232.937 104.046 232.634 103.614C232.346 103.182 232.202 102.607 232.202 101.887C232.202 101.2 232.394 100.585 232.778 100.041C233.161 99.4975 233.721 99.0738 234.456 98.7701C235.208 98.4503 236.119 98.2905 237.19 98.2905C238.005 98.2905 238.821 98.4024 239.636 98.6262C240.451 98.834 241.123 99.1138 241.65 99.4655L240.907 100.832C240.347 100.449 239.748 100.177 239.108 100.017C238.469 99.8412 237.829 99.7533 237.19 99.7533C236.055 99.7533 235.216 99.9531 234.672 100.353C234.144 100.736 233.881 101.232 233.881 101.84C233.881 102.319 234.025 102.695 234.312 102.967C234.616 103.238 235.008 103.454 235.487 103.614C235.983 103.758 236.518 103.878 237.094 103.974C237.686 104.07 238.269 104.19 238.845 104.333C239.436 104.461 239.972 104.645 240.451 104.885C240.947 105.109 241.339 105.437 241.626 105.868C241.93 106.284 242.082 106.835 242.082 107.523C242.082 108.258 241.874 108.898 241.458 109.441C241.059 109.969 240.467 110.385 239.684 110.688C238.916 110.976 237.981 111.12 236.878 111.12ZM244.726 111V98.4104H246.429V111H244.726ZM245.59 95.6286C245.238 95.6286 244.942 95.5087 244.702 95.2689C244.463 95.0291 244.343 94.7414 244.343 94.4057C244.343 94.0699 244.463 93.7902 244.702 93.5663C244.942 93.3265 245.238 93.2066 245.59 93.2066C245.941 93.2066 246.237 93.3186 246.477 93.5424C246.717 93.7662 246.837 94.046 246.837 94.3817C246.837 94.7334 246.717 95.0291 246.477 95.2689C246.253 95.5087 245.957 95.6286 245.59 95.6286ZM257.114 98.2905C258.137 98.2905 259.032 98.4903 259.799 98.89C260.583 99.2737 261.19 99.8652 261.622 100.665C262.07 101.464 262.293 102.471 262.293 103.686V111H260.591V103.854C260.591 102.527 260.255 101.528 259.584 100.856C258.928 100.169 258.001 99.8252 256.802 99.8252C255.907 99.8252 255.123 100.009 254.452 100.377C253.796 100.728 253.285 101.248 252.917 101.935C252.565 102.607 252.389 103.422 252.389 104.381V111H250.687V98.4104H252.318V101.864L252.054 101.216C252.453 100.305 253.093 99.5934 253.972 99.0818C254.851 98.5542 255.899 98.2905 257.114 98.2905ZM271.76 111.12C270.449 111.12 269.298 110.848 268.307 110.305C267.316 109.745 266.541 108.986 265.981 108.026C265.421 107.051 265.142 105.94 265.142 104.693C265.142 103.446 265.406 102.343 265.933 101.384C266.477 100.425 267.212 99.6733 268.139 99.1298C269.082 98.5702 270.138 98.2905 271.305 98.2905C272.488 98.2905 273.535 98.5622 274.446 99.1058C275.373 99.6334 276.101 100.385 276.628 101.36C277.156 102.319 277.42 103.43 277.42 104.693C277.42 104.773 277.412 104.861 277.396 104.957C277.396 105.037 277.396 105.125 277.396 105.221H266.437V103.95H276.484L275.813 104.453C275.813 103.542 275.613 102.735 275.213 102.031C274.83 101.312 274.302 100.752 273.631 100.353C272.959 99.9531 272.184 99.7533 271.305 99.7533C270.441 99.7533 269.666 99.9531 268.979 100.353C268.291 100.752 267.756 101.312 267.372 102.031C266.988 102.751 266.796 103.574 266.796 104.501V104.765C266.796 105.724 267.004 106.572 267.42 107.307C267.851 108.026 268.443 108.594 269.194 109.01C269.962 109.409 270.833 109.609 271.808 109.609C272.576 109.609 273.287 109.473 273.942 109.201C274.614 108.93 275.189 108.514 275.669 107.955L276.628 109.058C276.069 109.729 275.365 110.241 274.518 110.592C273.687 110.944 272.767 111.12 271.76 111.12ZM283.787 111.12C282.748 111.12 281.764 110.976 280.837 110.688C279.91 110.385 279.183 110.009 278.655 109.561L279.422 108.218C279.934 108.602 280.589 108.938 281.389 109.225C282.188 109.497 283.027 109.633 283.907 109.633C285.106 109.633 285.969 109.449 286.497 109.082C287.024 108.698 287.288 108.194 287.288 107.571C287.288 107.107 287.136 106.747 286.832 106.492C286.544 106.22 286.161 106.02 285.681 105.892C285.202 105.748 284.666 105.628 284.075 105.532C283.483 105.437 282.891 105.325 282.3 105.197C281.724 105.069 281.197 104.885 280.717 104.645C280.238 104.389 279.846 104.046 279.542 103.614C279.254 103.182 279.111 102.607 279.111 101.887C279.111 101.2 279.302 100.585 279.686 100.041C280.07 99.4975 280.629 99.0738 281.365 98.7701C282.116 98.4503 283.027 98.2905 284.099 98.2905C284.914 98.2905 285.729 98.4024 286.544 98.6262C287.36 98.834 288.031 99.1138 288.559 99.4655L287.815 100.832C287.256 100.449 286.656 100.177 286.017 100.017C285.377 99.8412 284.738 99.7533 284.099 99.7533C282.963 99.7533 282.124 99.9531 281.581 100.353C281.053 100.736 280.789 101.232 280.789 101.84C280.789 102.319 280.933 102.695 281.221 102.967C281.525 103.238 281.916 103.454 282.396 103.614C282.891 103.758 283.427 103.878 284.003 103.974C284.594 104.07 285.178 104.19 285.753 104.333C286.345 104.461 286.88 104.645 287.36 104.885C287.855 105.109 288.247 105.437 288.535 105.868C288.839 106.284 288.99 106.835 288.99 107.523C288.99 108.258 288.783 108.898 288.367 109.441C287.967 109.969 287.376 110.385 286.592 110.688C285.825 110.976 284.89 111.12 283.787 111.12ZM295.016 111.12C293.977 111.12 292.994 110.976 292.067 110.688C291.139 110.385 290.412 110.009 289.885 109.561L290.652 108.218C291.163 108.602 291.819 108.938 292.618 109.225C293.418 109.497 294.257 109.633 295.136 109.633C296.335 109.633 297.198 109.449 297.726 109.082C298.254 108.698 298.517 108.194 298.517 107.571C298.517 107.107 298.366 106.747 298.062 106.492C297.774 106.22 297.39 106.02 296.911 105.892C296.431 105.748 295.896 105.628 295.304 105.532C294.713 105.437 294.121 105.325 293.53 105.197C292.954 105.069 292.426 104.885 291.947 104.645C291.467 104.389 291.076 104.046 290.772 103.614C290.484 103.182 290.34 102.607 290.34 101.887C290.34 101.2 290.532 100.585 290.916 100.041C291.299 99.4975 291.859 99.0738 292.594 98.7701C293.346 98.4503 294.257 98.2905 295.328 98.2905C296.143 98.2905 296.959 98.4024 297.774 98.6262C298.589 98.834 299.261 99.1138 299.788 99.4655L299.045 100.832C298.485 100.449 297.886 100.177 297.246 100.017C296.607 99.8412 295.967 99.7533 295.328 99.7533C294.193 99.7533 293.354 99.9531 292.81 100.353C292.283 100.736 292.019 101.232 292.019 101.84C292.019 102.319 292.163 102.695 292.45 102.967C292.754 103.238 293.146 103.454 293.625 103.614C294.121 103.758 294.657 103.878 295.232 103.974C295.824 104.07 296.407 104.19 296.983 104.333C297.574 104.461 298.11 104.645 298.589 104.885C299.085 105.109 299.477 105.437 299.764 105.868C300.068 106.284 300.22 106.835 300.22 107.523C300.22 108.258 300.012 108.898 299.597 109.441C299.197 109.969 298.605 110.385 297.822 110.688C297.055 110.976 296.119 111.12 295.016 111.12ZM310.603 102.343H319.476V103.878H310.603V102.343ZM310.795 111H309.021V94.2138H320.531V95.7486H310.795V111ZM328.067 111.12C326.852 111.12 325.757 110.848 324.781 110.305C323.822 109.745 323.063 108.986 322.503 108.026C321.944 107.051 321.664 105.94 321.664 104.693C321.664 103.43 321.944 102.319 322.503 101.36C323.063 100.401 323.822 99.6493 324.781 99.1058C325.741 98.5622 326.836 98.2905 328.067 98.2905C329.314 98.2905 330.417 98.5622 331.376 99.1058C332.351 99.6493 333.111 100.401 333.654 101.36C334.214 102.319 334.493 103.43 334.493 104.693C334.493 105.94 334.214 107.051 333.654 108.026C333.111 108.986 332.351 109.745 331.376 110.305C330.401 110.848 329.298 111.12 328.067 111.12ZM328.067 109.609C328.978 109.609 329.785 109.409 330.489 109.01C331.192 108.594 331.744 108.018 332.143 107.283C332.559 106.532 332.767 105.668 332.767 104.693C332.767 103.702 332.559 102.839 332.143 102.103C331.744 101.368 331.192 100.8 330.489 100.401C329.785 99.9851 328.986 99.7772 328.091 99.7772C327.195 99.7772 326.396 99.9851 325.693 100.401C324.989 100.8 324.43 101.368 324.014 102.103C323.598 102.839 323.391 103.702 323.391 104.693C323.391 105.668 323.598 106.532 324.014 107.283C324.43 108.018 324.989 108.594 325.693 109.01C326.396 109.409 327.187 109.609 328.067 109.609ZM337.49 111V98.4104H339.12V101.84L338.953 101.24C339.304 100.281 339.896 99.5534 340.727 99.0578C341.558 98.5462 342.59 98.2905 343.821 98.2905V99.9451C343.757 99.9451 343.693 99.9451 343.629 99.9451C343.565 99.9291 343.501 99.9211 343.437 99.9211C342.11 99.9211 341.071 100.329 340.32 101.144C339.568 101.943 339.192 103.087 339.192 104.573V111H337.49ZM349.552 111L344.804 98.4104H346.435L350.751 110.089H350.008L354.444 98.4104H355.907L360.295 110.089H359.552L363.94 98.4104H365.499L360.727 111H359.12L354.9 100.017H355.403L351.159 111H349.552ZM375.098 111V108.218L375.026 107.763V103.11C375.026 102.039 374.722 101.216 374.115 100.641C373.523 100.065 372.636 99.7772 371.453 99.7772C370.638 99.7772 369.862 99.9131 369.127 100.185C368.392 100.457 367.768 100.816 367.256 101.264L366.489 99.9931C367.129 99.4495 367.896 99.0338 368.791 98.7461C369.686 98.4423 370.63 98.2905 371.621 98.2905C373.252 98.2905 374.506 98.6981 375.386 99.5135C376.281 100.313 376.729 101.536 376.729 103.182V111H375.098ZM370.758 111.12C369.814 111.12 368.991 110.968 368.288 110.664C367.6 110.345 367.073 109.913 366.705 109.369C366.337 108.81 366.153 108.17 366.153 107.451C366.153 106.795 366.305 106.204 366.609 105.676C366.929 105.133 367.44 104.701 368.144 104.381C368.863 104.046 369.822 103.878 371.021 103.878H375.362V105.149H371.069C369.854 105.149 369.007 105.365 368.527 105.796C368.064 106.228 367.832 106.763 367.832 107.403C367.832 108.122 368.112 108.698 368.671 109.13C369.231 109.561 370.014 109.777 371.021 109.777C371.981 109.777 372.804 109.561 373.491 109.13C374.195 108.682 374.706 108.042 375.026 107.211L375.41 108.386C375.09 109.217 374.53 109.881 373.731 110.377C372.948 110.872 371.957 111.12 370.758 111.12ZM380.873 111V98.4104H382.504V101.84L382.336 101.24C382.688 100.281 383.28 99.5534 384.111 99.0578C384.942 98.5462 385.973 98.2905 387.204 98.2905V99.9451C387.14 99.9451 387.076 99.9451 387.012 99.9451C386.948 99.9291 386.885 99.9211 386.821 99.9211C385.494 99.9211 384.455 100.329 383.703 101.144C382.952 101.943 382.576 103.087 382.576 104.573V111H380.873ZM394.726 111.12C393.527 111.12 392.448 110.848 391.489 110.305C390.546 109.761 389.802 109.01 389.259 108.05C388.715 107.075 388.443 105.956 388.443 104.693C388.443 103.414 388.715 102.295 389.259 101.336C389.802 100.377 390.546 99.6334 391.489 99.1058C392.448 98.5622 393.527 98.2905 394.726 98.2905C395.829 98.2905 396.813 98.5383 397.676 99.0338C398.555 99.5294 399.251 100.257 399.762 101.216C400.29 102.159 400.553 103.318 400.553 104.693C400.553 106.052 400.298 107.211 399.786 108.17C399.274 109.13 398.579 109.865 397.7 110.377C396.836 110.872 395.845 111.12 394.726 111.12ZM394.846 109.609C395.741 109.609 396.541 109.409 397.244 109.01C397.964 108.594 398.523 108.018 398.923 107.283C399.338 106.532 399.546 105.668 399.546 104.693C399.546 103.702 399.338 102.839 398.923 102.103C398.523 101.368 397.964 100.8 397.244 100.401C396.541 99.9851 395.741 99.7772 394.846 99.7772C393.967 99.7772 393.175 99.9851 392.472 100.401C391.769 100.8 391.209 101.368 390.793 102.103C390.378 102.839 390.17 103.702 390.17 104.693C390.17 105.668 390.378 106.532 390.793 107.283C391.209 108.018 391.769 108.594 392.472 109.01C393.175 109.409 393.967 109.609 394.846 109.609ZM399.594 111V107.211L399.762 104.669L399.522 102.127V93.2066H401.225V111H399.594Z" fill="#D3D3D3"/>
<defs>
<linearGradient id="paint0_linear_352_1306" x1="74.0922" y1="52.6374" x2="9.23242" y2="52.6374" gradientUnits="userSpaceOnUse">
<stop stop-color="#FF3000"/>
<stop offset="1" stop-color="#EA3CB8"/>
</linearGradient>
<linearGradient id="paint1_linear_352_1306" x1="81.6732" y1="57.4761" x2="35.7529" y2="57.4761" gradientUnits="userSpaceOnUse">
<stop stop-color="#FF3000"/>
<stop offset="1" stop-color="#EA3CB8"/>
</linearGradient>
<linearGradient id="paint2_linear_352_1306" x1="87.6677" y1="63.502" x2="60.7578" y2="63.502" gradientUnits="userSpaceOnUse">
<stop stop-color="#FF3000"/>
<stop offset="1" stop-color="#EA3CB8"/>
</linearGradient>
<linearGradient id="paint3_linear_352_1306" x1="78.5008" y1="27.376" x2="13.6411" y2="27.376" gradientUnits="userSpaceOnUse">
<stop stop-color="#FF3000"/>
<stop offset="1" stop-color="#EA3CB8"/>
</linearGradient>
<linearGradient id="paint4_linear_352_1306" x1="51.9805" y1="22.5555" x2="6.08643" y2="22.5555" gradientUnits="userSpaceOnUse">
<stop stop-color="#FF3000"/>
<stop offset="1" stop-color="#EA3CB8"/>
</linearGradient>
<linearGradient id="paint5_linear_352_1306" x1="26.9756" y1="16.4989" x2="0.0761719" y2="16.4989" gradientUnits="userSpaceOnUse">
<stop stop-color="#FF3000"/>
<stop offset="1" stop-color="#EA3CB8"/>
</linearGradient>
</defs>
</svg>
